<?xml version="1.0" standalone="no"?>
<!DOCTYPE svg PUBLIC "-//W3C//DTD SVG 20010904//EN"
 "http://www.w3.org/TR/2001/REC-SVG-20010904/DTD/svg10.dtd">
<svg version="1.0" xmlns="http://www.w3.org/2000/svg"
 width="1312.000000pt" height="1312.000000pt" viewBox="0 0 1312.000000 1312.000000"
 preserveAspectRatio="xMidYMid meet">
<metadata>
Created by potrace 1.14, written by Peter Selinger 2001-2017
</metadata>
<g transform="translate(0.000000,1312.000000) scale(0.100000,-0.100000)"
fill="#000000" stroke="none">
<path d="M8920 10654 c-25 -8 -49 -16 -55 -18 -19 -4 -100 -49 -145 -79 -49
-32 -210 -191 -210 -206 0 -5 -7 -16 -15 -24 -16 -17 -83 -151 -90 -181 -2
-12 -9 -39 -14 -61 -5 -22 -11 -65 -14 -96 -9 -109 -25 -126 -207 -224 -196
-106 -312 -198 -370 -295 -36 -59 -70 -100 -84 -100 -19 0 -171 81 -228 122
-16 11 -28 16 -28 13 0 -4 -11 0 -25 9 -25 16 -119 46 -165 51 -14 2 -43 6
-65 9 -60 9 -592 12 -655 3 -30 -4 -73 -11 -95 -17 -22 -5 -41 -7 -44 -5 -2 3
-9 1 -15 -4 -7 -6 -23 -12 -36 -15 -14 -3 -34 -7 -45 -9 -28 -7 -210 -75 -270
-102 -27 -12 -86 -39 -131 -58 -106 -48 -254 -125 -276 -145 -10 -8 -18 -11
-18 -6 0 5 -4 4 -8 -1 -4 -6 -38 -33 -77 -59 -190 -133 -365 -302 -635 -615
-71 -82 -107 -144 -155 -261 -21 -52 -42 -100 -47 -106 -5 -7 -11 -20 -13 -30
-3 -16 -125 -325 -156 -399 -11 -26 -109 -316 -114 -335 -1 -8 -15 -60 -30
-115 -16 -55 -29 -109 -31 -120 -14 -78 -32 -153 -42 -171 -13 -24 -36 -37
-47 -26 -4 4 -10 7 -13 8 -19 1 -98 28 -106 36 -6 4 -20 8 -31 8 -12 0 -25 3
-29 7 -3 4 -13 8 -21 9 -20 3 -87 24 -110 35 -11 5 -31 11 -45 13 -14 3 -25 5
-25 6 0 1 -7 3 -15 5 -124 29 -382 144 -438 194 -17 17 -32 28 -32 25 0 -3
-72 76 -75 83 -1 2 -14 4 -28 5 -15 1 -27 6 -27 11 0 6 -5 5 -12 0 -7 -5 -32
-15 -56 -23 -30 -9 -44 -20 -48 -36 -8 -33 -2 -55 21 -68 11 -6 23 -15 26 -19
3 -5 10 -9 15 -9 5 0 104 -47 219 -105 116 -57 211 -104 213 -104 1 1 18 -6
38 -14 20 -8 40 -15 45 -15 20 0 6 -26 -33 -64 -40 -37 -169 -126 -183 -126
-3 0 -11 -4 -18 -10 -7 -5 -50 -38 -97 -73 -135 -101 -324 -282 -342 -327 -10
-27 -2 -71 15 -82 26 -17 50 -5 110 55 66 64 117 110 163 143 14 10 41 30 59
44 18 14 89 63 157 110 68 46 125 88 126 92 2 4 10 8 17 8 7 0 15 3 17 8 4 10
111 80 129 84 8 2 17 7 20 12 4 5 21 9 38 10 17 0 31 4 31 7 0 15 101 -2 148
-24 29 -14 71 -28 94 -32 76 -13 80 -24 83 -245 2 -107 6 -206 10 -220 3 -14
8 -41 11 -60 4 -31 37 -217 49 -280 7 -37 15 -92 20 -140 16 -151 61 -369 102
-489 8 -25 17 -50 18 -56 1 -5 5 -18 8 -27 4 -10 10 -26 14 -35 3 -10 8 -27
10 -38 2 -10 8 -22 13 -25 6 -4 12 -17 15 -29 2 -13 21 -57 40 -98 26 -53 47
-81 73 -98 60 -39 193 -93 247 -99 28 -3 74 -8 104 -11 54 -6 211 -60 211 -74
0 -4 10 -7 22 -8 11 -1 24 -6 27 -11 3 -5 35 -21 71 -35 36 -14 65 -32 66 -39
1 -17 -23 -58 -49 -82 -29 -28 -69 -126 -65 -158 3 -15 1 -25 -4 -22 -5 3 -7
-41 -4 -98 4 -106 24 -174 81 -268 12 -19 43 -78 69 -130 76 -153 144 -192
336 -194 132 -1 188 6 320 41 52 13 100 25 105 27 32 7 92 30 103 39 6 5 12 7
12 4 0 -9 129 51 185 86 47 29 185 157 169 157 -4 0 0 8 9 18 14 15 47 80 53
105 1 4 3 9 4 12 3 6 4 9 14 59 4 22 9 71 12 110 5 93 13 99 116 102 86 2 172
10 221 20 16 3 38 7 50 8 12 2 36 6 52 9 17 3 48 9 70 12 22 3 54 8 70 10 146
25 160 18 169 -75 6 -53 16 -87 47 -148 26 -55 99 -172 99 -161 0 3 26 -20 58
-50 68 -65 79 -75 169 -139 38 -27 82 -54 100 -61 87 -35 208 6 303 101 66 66
90 95 90 108 0 6 5 10 10 10 6 0 10 8 10 18 0 10 6 24 13 31 6 6 12 15 13 19
0 4 4 18 7 32 21 76 4 185 -41 279 -10 20 -18 43 -17 51 1 8 3 20 3 26 3 17
50 33 117 39 49 4 100 13 175 30 91 20 261 94 334 145 25 16 49 30 55 30 6 0
11 3 11 8 0 4 17 18 38 32 44 29 156 140 148 147 -2 3 -1 15 4 28 5 12 11 53
15 91 12 143 16 169 31 223 17 61 30 99 50 146 14 34 53 167 59 205 3 14 9 52
14 85 9 54 8 349 -2 385 -6 24 -16 82 -21 125 -3 22 -7 56 -10 75 -3 19 -8 52
-11 73 -12 89 -17 114 -25 147 -5 19 -12 51 -15 70 -3 19 -24 87 -46 150 -76
219 -72 258 26 313 73 41 106 47 146 27 19 -10 66 -33 104 -53 39 -20 83 -39
99 -43 16 -4 41 -13 55 -20 14 -8 31 -14 38 -14 7 0 32 -7 56 -15 24 -8 52
-16 63 -18 10 -2 26 -6 34 -9 8 -3 42 -13 75 -23 33 -9 71 -21 85 -27 14 -6
48 -12 76 -14 47 -3 52 -1 63 23 6 14 9 33 6 43 -5 17 -66 70 -79 70 -4 0 -25
9 -49 19 -40 19 -275 102 -280 99 -7 -4 -86 16 -109 28 -21 11 -28 22 -28 44
0 53 55 84 198 110 98 18 264 68 273 82 13 21 2 61 -23 81 -17 14 -33 17 -68
14 -50 -6 -94 -14 -125 -24 -11 -4 -24 -8 -30 -9 -44 -10 -251 -80 -293 -100
-29 -13 -56 -24 -60 -24 -9 0 -97 -45 -182 -92 -73 -41 -114 -52 -128 -35 -5
7 -10 37 -12 67 -3 63 -7 113 -15 185 -3 28 -7 113 -9 190 -2 150 -8 171 -66
245 -44 56 -260 380 -260 390 0 4 -4 10 -8 12 -5 2 -30 37 -57 78 -42 65 -148
215 -173 245 -4 6 -26 33 -47 60 -99 125 -195 220 -286 282 -55 38 -168 96
-186 96 -7 0 -13 4 -13 9 0 4 -7 8 -16 8 -22 0 -218 96 -234 115 -20 24 -15
62 16 102 38 51 153 161 176 169 10 3 18 9 18 14 0 5 9 12 20 15 11 3 26 12
33 20 7 7 38 25 68 40 30 15 56 30 59 34 3 3 30 17 60 31 30 14 57 28 60 32
12 16 56 14 124 -4 190 -50 341 -16 456 102 86 88 144 213 157 345 12 107 5
304 -13 401 -11 62 -63 78 -154 48z m-1810 -1147 c77 -8 132 -17 150 -24 8 -3
25 -8 37 -10 13 -2 43 -12 68 -23 25 -11 46 -19 48 -18 1 1 29 -16 62 -38 64
-44 242 -144 255 -144 5 0 10 -3 12 -7 2 -5 19 -16 38 -25 19 -10 44 -24 55
-30 180 -116 251 -162 253 -169 2 -5 8 -9 13 -9 8 0 163 -111 216 -154 10 -8
47 -37 83 -63 118 -87 156 -131 299 -343 57 -85 109 -158 115 -162 6 -5 7 -8
1 -8 -7 0 -6 -3 0 -8 6 -4 35 -45 65 -92 30 -47 58 -86 63 -88 4 -2 7 -7 7
-12 0 -5 16 -32 35 -62 39 -59 52 -96 60 -178 13 -138 24 -282 30 -390 10
-199 15 -287 20 -310 3 -14 8 -45 11 -70 12 -90 55 -238 95 -328 39 -88 47
-107 55 -132 8 -26 9 -29 19 -70 10 -40 22 -181 19 -225 -11 -161 -24 -255
-41 -292 -15 -33 -63 -57 -99 -51 -18 3 -17 5 -28 -102 -10 -97 -15 -137 -30
-220 -3 -14 -7 -41 -10 -60 -3 -19 -8 -48 -11 -65 -3 -16 -12 -66 -20 -110
-28 -157 -28 -145 -2 -145 14 0 32 11 43 25 l18 24 23 -47 c13 -26 23 -53 23
-61 0 -8 -28 -41 -62 -74 -145 -138 -259 -220 -280 -199 -9 9 -4 18 16 34 84
70 109 107 69 103 -26 -3 -89 -31 -97 -44 -4 -6 -16 -11 -26 -11 -10 0 -20 -3
-22 -7 -5 -13 -160 -84 -318 -148 -63 -25 -124 -50 -135 -55 -11 -5 -65 -28
-120 -52 l-100 -43 -145 0 c-95 0 -152 -4 -166 -12 -36 -21 -166 -31 -229 -19
-49 9 -156 19 -229 21 -95 2 -150 -6 -306 -44 -95 -23 -265 -21 -409 4 -14 2
-48 7 -76 10 -27 2 -61 7 -75 9 -14 3 -63 7 -110 11 -47 3 -107 8 -135 11 -27
3 -63 7 -80 9 -98 10 -268 52 -360 88 -16 6 -34 11 -38 9 -4 -1 -16 2 -25 7
-17 9 -149 39 -204 46 -15 2 -36 6 -47 10 -11 3 -29 8 -42 10 -23 5 -83 22
-109 32 -8 3 -24 8 -35 10 -11 2 -27 6 -35 10 -8 3 -20 7 -26 8 -6 2 -38 11
-70 20 -33 10 -66 19 -74 20 -95 13 -126 26 -134 59 -6 25 -24 32 -99 42 -71
9 -177 70 -177 102 0 6 -4 12 -9 14 -6 2 -59 143 -67 181 -1 4 -2 8 -4 10 -1
1 -3 10 -5 20 -2 10 -10 41 -19 70 -18 63 -29 107 -31 127 -1 8 -5 35 -9 60
-4 25 -9 72 -11 105 -3 33 -7 69 -9 80 -68 301 -70 353 -27 490 40 125 52 226
38 335 -9 68 -13 83 -45 157 -16 39 -27 78 -26 89 2 10 5 42 9 70 3 28 10 75
15 105 6 30 13 70 16 89 3 19 12 60 21 90 8 30 15 60 17 65 7 30 30 91 36 99
5 5 6 15 3 22 -3 8 -1 14 4 14 5 0 10 6 10 13 0 7 11 44 26 83 36 96 97 266
101 284 9 35 76 210 104 272 16 37 28 69 24 72 -3 3 -1 6 5 6 5 0 20 24 33 53
29 64 95 167 174 272 60 80 277 304 350 360 21 17 43 35 50 40 26 25 177 135
246 182 117 78 197 126 300 177 52 27 106 54 120 61 41 21 233 84 270 89 19 3
35 5 35 6 0 1 11 3 25 5 14 1 41 6 60 10 35 7 74 12 140 19 19 2 35 5 35 6 0
1 18 4 40 5 22 2 40 4 40 5 0 1 31 4 69 6 38 2 70 5 72 7 4 4 173 0 234 -6z"/>
<path d="M7670 8213 c-85 -24 -134 -78 -151 -167 -20 -96 9 -169 81 -206 82
-42 154 -35 210 20 46 45 71 99 71 155 0 51 -3 61 -26 109 -34 71 -114 109
-185 89z"/>
<path d="M5814 8190 c-53 -25 -76 -47 -97 -95 -23 -48 -35 -179 -18 -189 6 -4
11 -14 11 -22 0 -18 64 -83 83 -85 103 -13 155 5 209 73 73 91 83 191 27 269
-41 58 -146 81 -215 49z"/>
<path d="M6978 7265 c-2 -1 -41 -6 -88 -10 -101 -9 -145 -13 -185 -19 -40 -5
-157 -16 -224 -21 -100 -7 -130 -16 -162 -47 -29 -30 -30 -34 -28 -111 5 -176
82 -317 222 -408 51 -33 112 -53 167 -53 74 0 200 39 280 87 31 18 146 127
135 127 -3 0 9 23 25 51 64 107 104 272 81 332 -14 37 -80 66 -159 71 -34 2
-62 3 -64 1z"/>
<path d="M4575 10200 c-7 -24 -10 -19 74 -143 36 -54 71 -105 76 -115 6 -9 13
-19 16 -22 3 -3 33 -46 67 -96 33 -50 68 -94 77 -98 19 -7 55 9 55 25 0 19
-54 116 -114 203 -85 124 -88 128 -113 156 -13 14 -23 28 -23 31 0 3 -11 19
-25 35 -14 16 -25 32 -25 37 0 4 -13 7 -29 7 -21 0 -32 -6 -36 -20z"/>
<path d="M4449 10005 c-41 -22 -61 -62 -67 -132 -4 -48 0 -73 13 -103 20 -45
72 -75 112 -65 31 8 93 56 93 73 0 6 4 12 9 12 4 0 20 25 34 57 21 47 23 58
12 70 -8 7 -18 13 -22 13 -13 0 -73 -64 -73 -77 0 -6 -18 -22 -40 -37 l-39
-26 -16 22 c-21 31 -19 56 10 111 17 32 23 55 19 72 -7 29 -10 29 -45 10z"/>
<path d="M3990 9710 c-71 -24 -91 -47 -92 -101 -1 -77 11 -119 43 -151 25 -26
38 -31 83 -32 101 -2 175 76 162 172 -13 100 -95 146 -196 112z m93 -101 c18
-24 11 -58 -16 -81 -36 -32 -71 -20 -87 29 -10 29 -9 37 6 54 24 26 78 25 97
-2z"/>
<path d="M4325 9462 c-21 -15 -50 -37 -63 -49 -20 -18 -28 -20 -48 -11 -13 6
-24 15 -24 20 0 15 -50 8 -56 -7 -4 -9 3 -36 14 -62 25 -58 17 -83 -44 -150
-54 -59 -61 -79 -39 -103 22 -25 40 -16 106 53 27 29 58 61 69 72 11 12 20 25
20 31 0 5 9 16 20 24 11 8 20 20 20 26 0 7 3 14 8 16 4 2 24 24 45 49 39 48
45 75 25 101 -12 15 -17 14 -53 -10z"/>
<path d="M10290 8678 c-11 -12 -25 -37 -32 -55 -9 -25 -17 -31 -32 -28 -12 2
-22 4 -23 6 -4 2 -12 4 -57 14 -54 11 -116 13 -116 3 0 -4 -9 -8 -19 -8 -28 0
-32 -12 -12 -37 16 -19 91 -49 91 -36 0 3 6 0 14 -7 12 -9 12 -17 4 -35 -9
-21 -45 -45 -150 -99 -39 -20 -44 -40 -19 -70 18 -22 43 -16 146 38 48 25 92
46 97 46 9 0 3 -64 -8 -81 -22 -36 -7 -94 26 -96 16 -1 25 7 36 35 38 94 47
110 87 135 22 15 49 27 59 27 10 0 18 4 18 10 0 12 -41 50 -55 50 -26 0 -32
21 -18 63 13 37 18 84 14 130 -2 24 -26 21 -51 -5z"/>
<path d="M10795 8567 c-19 -19 -37 -47 -41 -63 -4 -16 -10 -31 -13 -34 -4 -3
-14 -17 -24 -32 -23 -36 -64 -56 -107 -53 -80 6 -86 12 -67 57 10 24 25 39 46
46 17 6 31 8 31 5 0 -3 6 0 13 6 8 6 17 8 20 4 4 -3 7 6 7 20 0 62 -112 58
-173 -5 -35 -36 -75 -120 -72 -151 1 -12 3 -28 4 -35 2 -27 57 -39 142 -29 44
5 82 7 85 5 4 -5 -16 -62 -38 -104 -16 -34 -1 -64 31 -64 37 0 50 16 109 140
134 282 134 284 110 308 -18 18 -27 15 -63 -21z"/>
<path d="M11220 8503 c-8 -3 -25 -14 -36 -25 -23 -21 -22 -45 4 -86 14 -21 13
-26 -7 -52 -11 -16 -21 -34 -21 -40 0 -5 -4 -10 -9 -10 -5 0 -11 -11 -14 -25
-3 -19 2 -31 20 -45 l25 -19 36 38 c20 20 55 50 76 67 61 45 74 88 44 150 -15
33 -83 59 -118 47z"/>
<path d="M11135 8139 c-72 -20 -71 -109 1 -109 29 0 74 44 69 68 -2 9 -4 19
-4 22 -3 16 -39 26 -66 19z"/>
</g>
</svg>
